<svg width="18" height="18" viewBox="0 0 20 20" fill="none" xmlns="http://www.w3.org/2000/svg">
<path d="M15.8307 17.1006C15.8307 17.3216 15.6516 17.5006 15.4307 17.5006H7.06406C6.84315 17.5006 6.66406 17.3216 6.66406 17.1006V6.23398C6.66406 6.01307 6.84315 5.83398 7.06406 5.83398H15.4307C15.6516 5.83398 15.8307 6.01307 15.8307 6.23398V17.1006ZM15.8307 4.16732H6.66406C6.22203 4.16732 5.79811 4.34291 5.48555 4.65547C5.17299 4.96803 4.9974 5.39196 4.9974 5.83398V17.5006C4.9974 17.9427 5.17299 18.3666 5.48555 18.6792C5.79811 18.9917 6.22203 19.1673 6.66406 19.1673H15.8307C16.2728 19.1673 16.6967 18.9917 17.0092 18.6792C17.3218 18.3666 17.4974 17.9427 17.4974 17.5006V5.83398C17.4974 5.39196 17.3218 4.96803 17.0092 4.65547C16.6967 4.34291 16.2728 4.16732 15.8307 4.16732ZM13.3307 1.23398C13.3307 1.01307 13.1516 0.833984 12.9307 0.833984H3.33073C2.8887 0.833984 2.46478 1.00958 2.15222 1.32214C1.83966 1.6347 1.66406 2.05862 1.66406 2.50065V13.7673C1.66406 13.9882 1.84315 14.1673 2.06406 14.1673H2.93073C3.15164 14.1673 3.33073 13.9882 3.33073 13.7673V2.90065C3.33073 2.67974 3.50982 2.50065 3.73073 2.50065H12.9307C13.1516 2.50065 13.3307 2.32156 13.3307 2.10065V1.23398Z" fill="currentColor"/>
</svg>
