<svg width="20" height="14" viewBox="0 0 20 14" fill="none" xmlns="http://www.w3.org/2000/svg">
<path d="M9.99479 0.75C5.82812 0.75 2.26979 3.34167 0.828125 7C2.26979 10.6583 5.82812 13.25 9.99479 13.25C14.1615 13.25 17.7198 10.6583 19.1615 7C17.7198 3.34167 14.1615 0.75 9.99479 0.75ZM9.99479 11.1667C7.69479 11.1667 5.82812 9.3 5.82812 7C5.82812 4.7 7.69479 2.83333 9.99479 2.83333C12.2948 2.83333 14.1615 4.7 14.1615 7C14.1615 9.3 12.2948 11.1667 9.99479 11.1667ZM9.99479 4.5C8.61146 4.5 7.49479 5.61667 7.49479 7C7.49479 8.38333 8.61146 9.5 9.99479 9.5C11.3781 9.5 12.4948 8.38333 12.4948 7C12.4948 5.61667 11.3781 4.5 9.99479 4.5Z" fill="currentColor"/>
</svg>
